<?xml version="1.0" encoding="UTF-8" standalone="no"?>
<!-- Created with Inkscape (http://www.inkscape.org/) -->

<svg
   xmlns:dc="http://purl.org/dc/elements/1.1/"
   xmlns:cc="http://creativecommons.org/ns#"
   xmlns:rdf="http://www.w3.org/1999/02/22-rdf-syntax-ns#"
   xmlns:svg="http://www.w3.org/2000/svg"
   xmlns="http://www.w3.org/2000/svg"
   xmlns:sodipodi="http://sodipodi.sourceforge.net/DTD/sodipodi-0.dtd"
   xmlns:inkscape="http://www.inkscape.org/namespaces/inkscape"
   width="21.166666mm"
   height="21.166666mm"
   viewBox="0 0 21.166666 21.166666"
   id="svg2"
   version="1.1"
   inkscape:version="0.91+devel+osxmenu r12922"
   sodipodi:docname="logo.svg">
  <defs
     id="defs4" />
  <sodipodi:namedview
     id="base"
     pagecolor="#ffffff"
     bordercolor="#666666"
     borderopacity="1.0"
     inkscape:pageopacity="0.0"
     inkscape:pageshadow="2"
     inkscape:zoom="2.8"
     inkscape:cx="29.971805"
     inkscape:cy="0.18239594"
     inkscape:document-units="mm"
     inkscape:current-layer="layer1"
     showgrid="true"
     fit-margin-top="0"
     fit-margin-left="0"
     fit-margin-right="0"
     fit-margin-bottom="0"
     inkscape:window-width="960"
     inkscape:window-height="1105"
     inkscape:window-x="960"
     inkscape:window-y="23"
     inkscape:window-maximized="0">
    <inkscape:grid
       type="xygrid"
       id="grid4141"
       originx="-58.208331"
       originy="-185.20837" />
  </sodipodi:namedview>
  <metadata
     id="metadata7">
    <rdf:RDF>
      <cc:Work
         rdf:about="">
        <dc:format>image/svg+xml</dc:format>
        <dc:type
           rdf:resource="http://purl.org/dc/dcmitype/StillImage" />
        <dc:title></dc:title>
      </cc:Work>
    </rdf:RDF>
  </metadata>
  <g
     inkscape:label="Layer 1"
     inkscape:groupmode="layer"
     id="layer1"
     transform="translate(-58.208333,-90.624958)">
    <path
       style="opacity:1;fill:#a0d468;fill-opacity:1;fill-rule:nonzero;stroke:none;stroke-width:1.00157475;stroke-linecap:square;stroke-linejoin:miter;stroke-miterlimit:4;stroke-dasharray:none;stroke-dashoffset:0;stroke-opacity:1"
       d="m 260,342.51953 a 39.999999,39.999999 0 0 0 -40,40 39.999999,39.999999 0 0 0 40,40 39.999999,39.999999 0 0 0 40,-40 39.999999,39.999999 0 0 0 -40,-40 z m 0,10 a 30.000038,30.000038 0 0 1 30,30 30.000038,30.000038 0 0 1 -30,30 30.000038,30.000038 0 0 1 -30,-30 30.000038,30.000038 0 0 1 30,-30 z"
       transform="scale(0.26458333)"
       id="path4146"
       inkscape:connector-curvature="0"
       inkscape:export-xdpi="614.40002"
       inkscape:export-ydpi="614.40002" />
    <path
       style="opacity:1;fill:#fc6e51;fill-opacity:1;fill-rule:nonzero;stroke:none;stroke-width:1.00157475;stroke-linecap:square;stroke-linejoin:miter;stroke-miterlimit:4;stroke-dasharray:none;stroke-dashoffset:0;stroke-opacity:1"
       d="m 260,342.51953 0,10 a 30.000038,30.000038 0 0 1 30,30 l 10,0 a 39.999998,39.999998 0 0 0 -40,-40 z"
       transform="scale(0.26458333)"
       id="path4167"
       inkscape:connector-curvature="0"
       inkscape:export-xdpi="614.40002"
       inkscape:export-ydpi="614.40002" />
  </g>
</svg>
